<svg width="200" height="200" viewBox="0 0 200 200" xmlns="http://www.w3.org/2000/svg" id="logo1">
                        <defs>
                            <linearGradient id="grad1" x1="0%" y1="0%" x2="100%" y2="100%">
                                <stop offset="0%" style="stop-color:#667eea;stop-opacity:1"/>
                                <stop offset="100%" style="stop-color:#764ba2;stop-opacity:1"/>
                            </linearGradient>
                        </defs>
                        <!-- Shield outline -->
                        <path d="M100 20 L160 50 L160 100 Q160 140 100 180 Q40 140 40 100 L40 50 Z" fill="url(#grad1)" opacity="0.15" stroke="url(#grad1)" stroke-width="3"/>
                        <!-- P -->
                        <path d="M70 70 L70 130 M70 70 L95 70 Q105 70 105 85 Q105 100 95 100 L70 100" stroke="url(#grad1)" stroke-width="12" stroke-linecap="round" stroke-linejoin="round" fill="none"/>
                        <!-- S -->
                        <path d="M115 80 Q115 70 125 70 Q135 70 135 80 Q135 90 125 90 Q115 90 115 100 Q115 110 125 110 Q135 110 135 120" stroke="url(#grad1)" stroke-width="12" stroke-linecap="round" fill="none"/>
                        <!-- Lock icon -->
                        <rect x="85" y="140" width="30" height="25" rx="4" fill="url(#grad1)"/>
                        <path d="M92 140 L92 132 Q92 125 100 125 Q108 125 108 132 L108 140" stroke="url(#grad1)" stroke-width="6" stroke-linecap="round" fill="none"/>
                    </svg>